<mxfile host="app.diagrams.net" modified="2023-11-04T03:48:50.965Z" agent="Mozilla/5.0 (Windows NT 10.0; Win64; x64) AppleWebKit/537.36 (KHTML, like Gecko) Chrome/119.0.0.0 Safari/537.36" version="22.0.8" etag="LxydDIeAXWfd46ESe6Ri" type="device">
  <diagram id="PWJQZMEyeKjx7hlvS0hu" name="第 1 页">
    <mxGraphModel dx="1500" dy="763" grid="1" gridSize="10" guides="1" tooltips="1" connect="1" arrows="1" fold="1" page="1" pageScale="1" pageWidth="1654" pageHeight="1169" math="0" shadow="0">
      <root>
        <mxCell id="0" />
        <mxCell id="1" parent="0" />
        <mxCell id="T3COdDTeu6KHOqvCC-fU-74" style="edgeStyle=orthogonalEdgeStyle;rounded=0;orthogonalLoop=1;jettySize=auto;html=1;entryX=0;entryY=0.5;entryDx=0;entryDy=0;" edge="1" parent="1" source="T3COdDTeu6KHOqvCC-fU-1" target="T3COdDTeu6KHOqvCC-fU-5">
          <mxGeometry relative="1" as="geometry">
            <Array as="points">
              <mxPoint x="170" y="140" />
            </Array>
          </mxGeometry>
        </mxCell>
        <mxCell id="T3COdDTeu6KHOqvCC-fU-75" style="edgeStyle=orthogonalEdgeStyle;rounded=0;orthogonalLoop=1;jettySize=auto;html=1;entryX=0;entryY=0.5;entryDx=0;entryDy=0;" edge="1" parent="1" source="T3COdDTeu6KHOqvCC-fU-1" target="T3COdDTeu6KHOqvCC-fU-4">
          <mxGeometry relative="1" as="geometry">
            <Array as="points">
              <mxPoint x="210" y="235" />
            </Array>
          </mxGeometry>
        </mxCell>
        <mxCell id="T3COdDTeu6KHOqvCC-fU-78" style="edgeStyle=orthogonalEdgeStyle;rounded=0;orthogonalLoop=1;jettySize=auto;html=1;exitX=1;exitY=0;exitDx=0;exitDy=0;entryX=0;entryY=0.5;entryDx=0;entryDy=0;" edge="1" parent="1" source="T3COdDTeu6KHOqvCC-fU-1" target="T3COdDTeu6KHOqvCC-fU-3">
          <mxGeometry relative="1" as="geometry">
            <Array as="points">
              <mxPoint x="235" y="340" />
            </Array>
          </mxGeometry>
        </mxCell>
        <mxCell id="T3COdDTeu6KHOqvCC-fU-79" style="edgeStyle=orthogonalEdgeStyle;rounded=0;orthogonalLoop=1;jettySize=auto;html=1;exitX=0.5;exitY=1;exitDx=0;exitDy=0;entryX=0;entryY=0.5;entryDx=0;entryDy=0;" edge="1" parent="1" source="T3COdDTeu6KHOqvCC-fU-1" target="T3COdDTeu6KHOqvCC-fU-2">
          <mxGeometry relative="1" as="geometry" />
        </mxCell>
        <mxCell id="T3COdDTeu6KHOqvCC-fU-1" value="&lt;font style=&quot;font-size: 32px;&quot;&gt;START&lt;/font&gt;" style="ellipse;whiteSpace=wrap;html=1;fontSize=16;fontStyle=1" vertex="1" parent="1">
          <mxGeometry x="90" y="390" width="170" height="100" as="geometry" />
        </mxCell>
        <mxCell id="T3COdDTeu6KHOqvCC-fU-55" value="" style="edgeStyle=orthogonalEdgeStyle;rounded=0;orthogonalLoop=1;jettySize=auto;html=1;fontSize=16;fontStyle=1" edge="1" parent="1" source="T3COdDTeu6KHOqvCC-fU-2" target="T3COdDTeu6KHOqvCC-fU-47">
          <mxGeometry relative="1" as="geometry" />
        </mxCell>
        <mxCell id="T3COdDTeu6KHOqvCC-fU-2" value="Enter the content he wants to delete into input box" style="rounded=0;whiteSpace=wrap;html=1;fontSize=16;fontStyle=1" vertex="1" parent="1">
          <mxGeometry x="290" y="527.5" width="160" height="75" as="geometry" />
        </mxCell>
        <mxCell id="T3COdDTeu6KHOqvCC-fU-43" value="" style="edgeStyle=orthogonalEdgeStyle;rounded=0;orthogonalLoop=1;jettySize=auto;html=1;fontSize=16;fontStyle=1" edge="1" parent="1" source="T3COdDTeu6KHOqvCC-fU-3" target="T3COdDTeu6KHOqvCC-fU-42">
          <mxGeometry relative="1" as="geometry" />
        </mxCell>
        <mxCell id="T3COdDTeu6KHOqvCC-fU-3" value="Enter the content he wants to update int the input box" style="rounded=0;whiteSpace=wrap;html=1;fontSize=16;fontStyle=1" vertex="1" parent="1">
          <mxGeometry x="300" y="298.44" width="150" height="82.5" as="geometry" />
        </mxCell>
        <mxCell id="T3COdDTeu6KHOqvCC-fU-81" value="" style="edgeStyle=orthogonalEdgeStyle;rounded=0;orthogonalLoop=1;jettySize=auto;html=1;" edge="1" parent="1" source="T3COdDTeu6KHOqvCC-fU-4" target="T3COdDTeu6KHOqvCC-fU-46">
          <mxGeometry relative="1" as="geometry" />
        </mxCell>
        <mxCell id="T3COdDTeu6KHOqvCC-fU-4" value="User click READ button" style="rounded=0;whiteSpace=wrap;html=1;fontSize=16;fontStyle=1" vertex="1" parent="1">
          <mxGeometry x="300" y="205" width="150" height="60" as="geometry" />
        </mxCell>
        <mxCell id="T3COdDTeu6KHOqvCC-fU-14" style="edgeStyle=orthogonalEdgeStyle;rounded=0;orthogonalLoop=1;jettySize=auto;html=1;entryX=0;entryY=0.5;entryDx=0;entryDy=0;fontSize=16;fontStyle=1" edge="1" parent="1" source="T3COdDTeu6KHOqvCC-fU-5" target="T3COdDTeu6KHOqvCC-fU-13">
          <mxGeometry relative="1" as="geometry" />
        </mxCell>
        <mxCell id="T3COdDTeu6KHOqvCC-fU-5" value="Enter content in the&amp;nbsp; input box" style="rounded=0;whiteSpace=wrap;html=1;fontSize=16;fontStyle=1" vertex="1" parent="1">
          <mxGeometry x="300" y="110" width="150" height="60" as="geometry" />
        </mxCell>
        <mxCell id="T3COdDTeu6KHOqvCC-fU-83" value="" style="edgeStyle=orthogonalEdgeStyle;rounded=0;orthogonalLoop=1;jettySize=auto;html=1;" edge="1" parent="1" source="T3COdDTeu6KHOqvCC-fU-13" target="T3COdDTeu6KHOqvCC-fU-54">
          <mxGeometry relative="1" as="geometry" />
        </mxCell>
        <mxCell id="T3COdDTeu6KHOqvCC-fU-13" value="Click CREATE button" style="rounded=0;whiteSpace=wrap;html=1;fontSize=16;fontStyle=1" vertex="1" parent="1">
          <mxGeometry x="490" y="110" width="140" height="60" as="geometry" />
        </mxCell>
        <mxCell id="T3COdDTeu6KHOqvCC-fU-91" value="" style="edgeStyle=orthogonalEdgeStyle;rounded=0;orthogonalLoop=1;jettySize=auto;html=1;" edge="1" parent="1" source="T3COdDTeu6KHOqvCC-fU-15" target="T3COdDTeu6KHOqvCC-fU-90">
          <mxGeometry relative="1" as="geometry" />
        </mxCell>
        <mxCell id="T3COdDTeu6KHOqvCC-fU-92" style="edgeStyle=orthogonalEdgeStyle;rounded=0;orthogonalLoop=1;jettySize=auto;html=1;entryX=1;entryY=0.25;entryDx=0;entryDy=0;" edge="1" parent="1" source="T3COdDTeu6KHOqvCC-fU-15" target="T3COdDTeu6KHOqvCC-fU-54">
          <mxGeometry relative="1" as="geometry">
            <Array as="points">
              <mxPoint x="1340" y="125" />
            </Array>
          </mxGeometry>
        </mxCell>
        <mxCell id="T3COdDTeu6KHOqvCC-fU-93" style="edgeStyle=orthogonalEdgeStyle;rounded=0;orthogonalLoop=1;jettySize=auto;html=1;entryX=1;entryY=0.25;entryDx=0;entryDy=0;" edge="1" parent="1" source="T3COdDTeu6KHOqvCC-fU-15" target="T3COdDTeu6KHOqvCC-fU-53">
          <mxGeometry relative="1" as="geometry">
            <Array as="points">
              <mxPoint x="1270" y="220" />
            </Array>
          </mxGeometry>
        </mxCell>
        <mxCell id="T3COdDTeu6KHOqvCC-fU-95" value="" style="edgeStyle=orthogonalEdgeStyle;rounded=0;orthogonalLoop=1;jettySize=auto;html=1;" edge="1" parent="1" source="T3COdDTeu6KHOqvCC-fU-15" target="T3COdDTeu6KHOqvCC-fU-52">
          <mxGeometry relative="1" as="geometry">
            <Array as="points">
              <mxPoint x="1310" y="500" />
              <mxPoint x="1310" y="500" />
            </Array>
          </mxGeometry>
        </mxCell>
        <mxCell id="T3COdDTeu6KHOqvCC-fU-15" value="&lt;font style=&quot;font-size: 36px;&quot;&gt;FIrebase&lt;/font&gt;" style="whiteSpace=wrap;html=1;fontSize=16;fontStyle=1" vertex="1" parent="1">
          <mxGeometry x="1200" y="360" width="160" height="110" as="geometry" />
        </mxCell>
        <mxCell id="T3COdDTeu6KHOqvCC-fU-80" value="" style="edgeStyle=orthogonalEdgeStyle;rounded=0;orthogonalLoop=1;jettySize=auto;html=1;" edge="1" parent="1" source="T3COdDTeu6KHOqvCC-fU-19" target="T3COdDTeu6KHOqvCC-fU-20">
          <mxGeometry relative="1" as="geometry" />
        </mxCell>
        <mxCell id="T3COdDTeu6KHOqvCC-fU-19" value="Search content from Firebase Realtime Database" style="whiteSpace=wrap;html=1;fontSize=16;fontStyle=1" vertex="1" parent="1">
          <mxGeometry x="680" y="300.32" width="150" height="80.62" as="geometry" />
        </mxCell>
        <mxCell id="T3COdDTeu6KHOqvCC-fU-45" style="edgeStyle=orthogonalEdgeStyle;rounded=0;orthogonalLoop=1;jettySize=auto;html=1;entryX=0;entryY=0.5;entryDx=0;entryDy=0;fontSize=16;fontStyle=1" edge="1" parent="1" source="T3COdDTeu6KHOqvCC-fU-20" target="T3COdDTeu6KHOqvCC-fU-22">
          <mxGeometry relative="1" as="geometry" />
        </mxCell>
        <mxCell id="T3COdDTeu6KHOqvCC-fU-106" style="edgeStyle=orthogonalEdgeStyle;rounded=0;orthogonalLoop=1;jettySize=auto;html=1;entryX=1;entryY=0.5;entryDx=0;entryDy=0;" edge="1" parent="1" source="T3COdDTeu6KHOqvCC-fU-20" target="T3COdDTeu6KHOqvCC-fU-103">
          <mxGeometry relative="1" as="geometry">
            <Array as="points">
              <mxPoint x="993" y="455" />
            </Array>
          </mxGeometry>
        </mxCell>
        <mxCell id="T3COdDTeu6KHOqvCC-fU-20" value="If content exisis in databse" style="rhombus;whiteSpace=wrap;html=1;fontSize=16;fontStyle=1" vertex="1" parent="1">
          <mxGeometry x="892.5" y="291.16" width="200" height="98.84" as="geometry" />
        </mxCell>
        <mxCell id="T3COdDTeu6KHOqvCC-fU-85" style="edgeStyle=orthogonalEdgeStyle;rounded=0;orthogonalLoop=1;jettySize=auto;html=1;entryX=0;entryY=0.5;entryDx=0;entryDy=0;" edge="1" parent="1" source="T3COdDTeu6KHOqvCC-fU-22" target="T3COdDTeu6KHOqvCC-fU-15">
          <mxGeometry relative="1" as="geometry">
            <Array as="points">
              <mxPoint x="1120" y="415" />
            </Array>
          </mxGeometry>
        </mxCell>
        <mxCell id="T3COdDTeu6KHOqvCC-fU-22" value="UPDATE the content" style="whiteSpace=wrap;html=1;fontSize=16;fontStyle=1" vertex="1" parent="1">
          <mxGeometry x="1057.5" y="240.32" width="120" height="60" as="geometry" />
        </mxCell>
        <mxCell id="T3COdDTeu6KHOqvCC-fU-25" value="YES" style="text;html=1;align=center;verticalAlign=middle;resizable=0;points=[];autosize=1;strokeColor=none;fillColor=none;fontSize=16;fontStyle=1" vertex="1" parent="1">
          <mxGeometry x="935" y="261.16" width="60" height="30" as="geometry" />
        </mxCell>
        <mxCell id="T3COdDTeu6KHOqvCC-fU-44" value="" style="edgeStyle=orthogonalEdgeStyle;rounded=0;orthogonalLoop=1;jettySize=auto;html=1;fontSize=16;fontStyle=1" edge="1" parent="1" source="T3COdDTeu6KHOqvCC-fU-42" target="T3COdDTeu6KHOqvCC-fU-19">
          <mxGeometry relative="1" as="geometry" />
        </mxCell>
        <mxCell id="T3COdDTeu6KHOqvCC-fU-42" value="Click UPDATE button" style="rounded=0;whiteSpace=wrap;html=1;fontSize=16;fontStyle=1" vertex="1" parent="1">
          <mxGeometry x="490" y="299.69" width="140" height="80" as="geometry" />
        </mxCell>
        <mxCell id="T3COdDTeu6KHOqvCC-fU-82" value="" style="edgeStyle=orthogonalEdgeStyle;rounded=0;orthogonalLoop=1;jettySize=auto;html=1;" edge="1" parent="1" source="T3COdDTeu6KHOqvCC-fU-46" target="T3COdDTeu6KHOqvCC-fU-53">
          <mxGeometry relative="1" as="geometry" />
        </mxCell>
        <mxCell id="T3COdDTeu6KHOqvCC-fU-46" value="Click READ&lt;br&gt;&amp;nbsp;button" style="rounded=0;whiteSpace=wrap;html=1;fontSize=16;fontStyle=1" vertex="1" parent="1">
          <mxGeometry x="490" y="205" width="140" height="60" as="geometry" />
        </mxCell>
        <mxCell id="T3COdDTeu6KHOqvCC-fU-56" value="" style="edgeStyle=orthogonalEdgeStyle;rounded=0;orthogonalLoop=1;jettySize=auto;html=1;fontSize=16;fontStyle=1" edge="1" parent="1" source="T3COdDTeu6KHOqvCC-fU-47" target="T3COdDTeu6KHOqvCC-fU-48">
          <mxGeometry relative="1" as="geometry" />
        </mxCell>
        <mxCell id="T3COdDTeu6KHOqvCC-fU-47" value="Click DELETE button" style="rounded=0;whiteSpace=wrap;html=1;fontSize=16;fontStyle=1" vertex="1" parent="1">
          <mxGeometry x="490" y="530" width="140" height="70" as="geometry" />
        </mxCell>
        <mxCell id="T3COdDTeu6KHOqvCC-fU-57" value="" style="edgeStyle=orthogonalEdgeStyle;rounded=0;orthogonalLoop=1;jettySize=auto;html=1;fontSize=16;fontStyle=1" edge="1" parent="1" source="T3COdDTeu6KHOqvCC-fU-48" target="T3COdDTeu6KHOqvCC-fU-49">
          <mxGeometry relative="1" as="geometry" />
        </mxCell>
        <mxCell id="T3COdDTeu6KHOqvCC-fU-48" value="Search content from Firebase Realtime Database" style="whiteSpace=wrap;html=1;fontSize=16;fontStyle=1" vertex="1" parent="1">
          <mxGeometry x="677" y="527.5" width="150" height="75" as="geometry" />
        </mxCell>
        <mxCell id="T3COdDTeu6KHOqvCC-fU-61" style="edgeStyle=orthogonalEdgeStyle;rounded=0;orthogonalLoop=1;jettySize=auto;html=1;fontSize=16;fontStyle=1" edge="1" parent="1" source="T3COdDTeu6KHOqvCC-fU-49">
          <mxGeometry relative="1" as="geometry">
            <mxPoint x="370" y="603" as="targetPoint" />
            <Array as="points">
              <mxPoint x="1025" y="660" />
              <mxPoint x="370" y="660" />
            </Array>
          </mxGeometry>
        </mxCell>
        <mxCell id="T3COdDTeu6KHOqvCC-fU-71" value="" style="edgeStyle=orthogonalEdgeStyle;rounded=0;orthogonalLoop=1;jettySize=auto;html=1;" edge="1" parent="1" source="T3COdDTeu6KHOqvCC-fU-49" target="T3COdDTeu6KHOqvCC-fU-52">
          <mxGeometry relative="1" as="geometry" />
        </mxCell>
        <mxCell id="T3COdDTeu6KHOqvCC-fU-49" value="If content exisis in databse" style="rhombus;whiteSpace=wrap;html=1;fontSize=16;fontStyle=1" vertex="1" parent="1">
          <mxGeometry x="930" y="518.75" width="190" height="92.5" as="geometry" />
        </mxCell>
        <mxCell id="T3COdDTeu6KHOqvCC-fU-73" value="" style="edgeStyle=orthogonalEdgeStyle;rounded=0;orthogonalLoop=1;jettySize=auto;html=1;" edge="1" parent="1" source="T3COdDTeu6KHOqvCC-fU-52" target="T3COdDTeu6KHOqvCC-fU-15">
          <mxGeometry relative="1" as="geometry">
            <Array as="points">
              <mxPoint x="1290" y="500" />
              <mxPoint x="1290" y="500" />
            </Array>
          </mxGeometry>
        </mxCell>
        <mxCell id="T3COdDTeu6KHOqvCC-fU-52" value="DELETE the content" style="whiteSpace=wrap;html=1;fontSize=16;fontStyle=1" vertex="1" parent="1">
          <mxGeometry x="1250" y="535" width="120" height="60" as="geometry" />
        </mxCell>
        <mxCell id="T3COdDTeu6KHOqvCC-fU-53" value="Show database content" style="whiteSpace=wrap;html=1;fontSize=16;fontStyle=1" vertex="1" parent="1">
          <mxGeometry x="680" y="205" width="150" height="60" as="geometry" />
        </mxCell>
        <mxCell id="T3COdDTeu6KHOqvCC-fU-89" style="edgeStyle=orthogonalEdgeStyle;rounded=0;orthogonalLoop=1;jettySize=auto;html=1;exitX=1;exitY=0.5;exitDx=0;exitDy=0;entryX=0.75;entryY=0;entryDx=0;entryDy=0;" edge="1" parent="1" source="T3COdDTeu6KHOqvCC-fU-54" target="T3COdDTeu6KHOqvCC-fU-15">
          <mxGeometry relative="1" as="geometry" />
        </mxCell>
        <mxCell id="T3COdDTeu6KHOqvCC-fU-54" value="Content has been added in datebase" style="whiteSpace=wrap;html=1;fontSize=16;fontStyle=1" vertex="1" parent="1">
          <mxGeometry x="677" y="110" width="150" height="60" as="geometry" />
        </mxCell>
        <mxCell id="T3COdDTeu6KHOqvCC-fU-59" value="YES" style="text;html=1;align=center;verticalAlign=middle;resizable=0;points=[];autosize=1;strokeColor=none;fillColor=none;fontSize=16;fontStyle=1" vertex="1" parent="1">
          <mxGeometry x="1120" y="535" width="60" height="30" as="geometry" />
        </mxCell>
        <mxCell id="T3COdDTeu6KHOqvCC-fU-62" value="NO" style="text;html=1;align=center;verticalAlign=middle;resizable=0;points=[];autosize=1;strokeColor=none;fillColor=none;fontSize=16;fontStyle=1" vertex="1" parent="1">
          <mxGeometry x="950" y="620" width="50" height="30" as="geometry" />
        </mxCell>
        <mxCell id="T3COdDTeu6KHOqvCC-fU-87" style="edgeStyle=orthogonalEdgeStyle;rounded=0;orthogonalLoop=1;jettySize=auto;html=1;exitX=1;exitY=0.5;exitDx=0;exitDy=0;entryX=0.322;entryY=0.002;entryDx=0;entryDy=0;entryPerimeter=0;" edge="1" parent="1" source="T3COdDTeu6KHOqvCC-fU-53" target="T3COdDTeu6KHOqvCC-fU-15">
          <mxGeometry relative="1" as="geometry">
            <Array as="points">
              <mxPoint x="830" y="230" />
              <mxPoint x="1252" y="230" />
            </Array>
          </mxGeometry>
        </mxCell>
        <mxCell id="T3COdDTeu6KHOqvCC-fU-90" value="&lt;font style=&quot;font-size: 32px;&quot;&gt;OVER&lt;/font&gt;" style="ellipse;whiteSpace=wrap;html=1;fontSize=16;fontStyle=1" vertex="1" parent="1">
          <mxGeometry x="1410" y="365" width="170" height="100" as="geometry" />
        </mxCell>
        <mxCell id="T3COdDTeu6KHOqvCC-fU-94" style="edgeStyle=orthogonalEdgeStyle;rounded=0;orthogonalLoop=1;jettySize=auto;html=1;entryX=0.624;entryY=0.988;entryDx=0;entryDy=0;entryPerimeter=0;" edge="1" parent="1" source="T3COdDTeu6KHOqvCC-fU-15" target="T3COdDTeu6KHOqvCC-fU-22">
          <mxGeometry relative="1" as="geometry">
            <Array as="points">
              <mxPoint x="1132" y="400" />
            </Array>
          </mxGeometry>
        </mxCell>
        <mxCell id="T3COdDTeu6KHOqvCC-fU-96" value="&lt;b&gt;&lt;font style=&quot;font-size: 16px;&quot;&gt;Add content successfully&lt;/font&gt;&lt;/b&gt;" style="text;html=1;align=center;verticalAlign=middle;resizable=0;points=[];autosize=1;strokeColor=none;fillColor=none;" vertex="1" parent="1">
          <mxGeometry x="1000" y="90" width="220" height="30" as="geometry" />
        </mxCell>
        <mxCell id="T3COdDTeu6KHOqvCC-fU-97" value="&lt;b&gt;&lt;font style=&quot;font-size: 16px;&quot;&gt;Successfully display content&lt;/font&gt;&lt;/b&gt;" style="text;html=1;align=center;verticalAlign=middle;resizable=0;points=[];autosize=1;strokeColor=none;fillColor=none;" vertex="1" parent="1">
          <mxGeometry x="935" y="190" width="240" height="30" as="geometry" />
        </mxCell>
        <mxCell id="T3COdDTeu6KHOqvCC-fU-98" value="&lt;b style=&quot;font-size: 14px;&quot;&gt;Updated &lt;br&gt;content &lt;br&gt;successfully&lt;/b&gt;" style="text;html=1;align=center;verticalAlign=middle;resizable=0;points=[];autosize=1;strokeColor=none;fillColor=none;" vertex="1" parent="1">
          <mxGeometry x="1120" y="300.31999999999994" width="110" height="60" as="geometry" />
        </mxCell>
        <mxCell id="T3COdDTeu6KHOqvCC-fU-99" value="&lt;b style=&quot;border-color: var(--border-color); color: rgb(0, 0, 0); font-family: Helvetica; font-size: 14px; font-style: normal; font-variant-ligatures: normal; font-variant-caps: normal; letter-spacing: normal; orphans: 2; text-align: center; text-indent: 0px; text-transform: none; widows: 2; word-spacing: 0px; -webkit-text-stroke-width: 0px; background-color: rgb(251, 251, 251); text-decoration-thickness: initial; text-decoration-style: initial; text-decoration-color: initial;&quot;&gt;Delete&lt;br style=&quot;border-color: var(--border-color);&quot;&gt;content&lt;br style=&quot;border-color: var(--border-color);&quot;&gt;successfully&lt;/b&gt;" style="text;whiteSpace=wrap;html=1;" vertex="1" parent="1">
          <mxGeometry x="1320" y="470" width="110" height="70" as="geometry" />
        </mxCell>
        <mxCell id="T3COdDTeu6KHOqvCC-fU-105" style="edgeStyle=orthogonalEdgeStyle;rounded=0;orthogonalLoop=1;jettySize=auto;html=1;exitX=0;exitY=0.5;exitDx=0;exitDy=0;" edge="1" parent="1" source="T3COdDTeu6KHOqvCC-fU-103">
          <mxGeometry relative="1" as="geometry">
            <mxPoint x="560" y="380" as="targetPoint" />
          </mxGeometry>
        </mxCell>
        <mxCell id="T3COdDTeu6KHOqvCC-fU-103" value="&lt;b&gt;&lt;font style=&quot;font-size: 16px;&quot;&gt;Re-enter the content in input box&lt;/font&gt;&lt;/b&gt;" style="whiteSpace=wrap;html=1;" vertex="1" parent="1">
          <mxGeometry x="680" y="420" width="150" height="70" as="geometry" />
        </mxCell>
      </root>
    </mxGraphModel>
  </diagram>
</mxfile>
